# xmcd
#
# Track frame offsets:
#	150
#	14410
#	29900
#	46966
#	57805
#	71070
#	86907
#	104461
#	119180
#	135987
#	152290
#	166612
#
# Disc length: 2459 seconds
#
# Revision: 3
# Processed by: cddbd v1.5.2PL0 Copyright (c) Steve Scherf et al.
# Submitted via: EZCDAudioConverter 6.0.7.1
#
DISCID=a009990c
DTITLE=Joe Diffie - Tougher Than Nails
DYEAR=2004
DGENRE=Country
TTITLE0=Tougher Than Nails
TTITLE1=Nothin' But The Radio
TTITLE2=Good News, Bad News
TTITLE3=The More You Drink, The Better I Look
TTITLE4=Am I
TTITLE5=Movin' Train
TTITLE6=If I Could Only Bring You Back
TTITLE7=What Would Waylon Do
TTITLE8=Something I Do For Me
TTITLE9=Daddy's Home
TTITLE10=This Time Last Year
TTITLE11=My Redneck Of The Woods 
EXTD=
EXTT0=
EXTT1=
EXTT2=
EXTT3=
EXTT4=
EXTT5=
EXTT6=
EXTT7=
EXTT8=
EXTT9=
EXTT10=
EXTT11=
PLAYORDER=
